<mxfile host="app.diagrams.net" agent="Mozilla/5.0 (Macintosh; Intel Mac OS X 10.15; rv:136.0) Gecko/20100101 Firefox/136.0" version="26.1.3">
  <diagram name="Page-1" id="M3UlzSxxT0mN9Tt4AKU8">
    <mxGraphModel dx="1432" dy="901" grid="1" gridSize="10" guides="1" tooltips="1" connect="1" arrows="1" fold="1" page="1" pageScale="1" pageWidth="4000" pageHeight="4000" math="0" shadow="0">
      <root>
        <mxCell id="0" />
        <mxCell id="1" parent="0" />
        <mxCell id="65Ibzihye3PbVpg7L_qn-14" value="Festival" style="whiteSpace=wrap;html=1;align=center;" parent="1" vertex="1">
          <mxGeometry x="510" y="1915" width="100" height="40" as="geometry" />
        </mxCell>
        <mxCell id="65Ibzihye3PbVpg7L_qn-16" value="Duration" style="ellipse;whiteSpace=wrap;html=1;align=center;" parent="1" vertex="1">
          <mxGeometry x="350" y="1915" width="90" height="40" as="geometry" />
        </mxCell>
        <mxCell id="65Ibzihye3PbVpg7L_qn-24" value="" style="endArrow=none;html=1;rounded=0;exitX=1;exitY=0.5;exitDx=0;exitDy=0;entryX=0;entryY=0.5;entryDx=0;entryDy=0;" parent="1" source="65Ibzihye3PbVpg7L_qn-16" target="65Ibzihye3PbVpg7L_qn-14" edge="1">
          <mxGeometry width="50" height="50" relative="1" as="geometry">
            <mxPoint x="700" y="1715" as="sourcePoint" />
            <mxPoint x="750" y="1665" as="targetPoint" />
          </mxGeometry>
        </mxCell>
        <mxCell id="65Ibzihye3PbVpg7L_qn-25" value="&lt;div&gt;Year&lt;/div&gt;" style="ellipse;whiteSpace=wrap;html=1;align=center;" parent="1" vertex="1">
          <mxGeometry x="515" y="2023" width="90" height="40" as="geometry" />
        </mxCell>
        <mxCell id="65Ibzihye3PbVpg7L_qn-26" value="" style="endArrow=none;html=1;rounded=0;" parent="1" source="65Ibzihye3PbVpg7L_qn-25" target="65Ibzihye3PbVpg7L_qn-14" edge="1">
          <mxGeometry width="50" height="50" relative="1" as="geometry">
            <mxPoint x="690" y="1645" as="sourcePoint" />
            <mxPoint x="710" y="1565" as="targetPoint" />
          </mxGeometry>
        </mxCell>
        <mxCell id="65Ibzihye3PbVpg7L_qn-35" value="Location" style="whiteSpace=wrap;html=1;align=center;" parent="1" vertex="1">
          <mxGeometry x="510" y="1710" width="100" height="40" as="geometry" />
        </mxCell>
        <mxCell id="65Ibzihye3PbVpg7L_qn-37" value="hosted" style="shape=rhombus;perimeter=rhombusPerimeter;whiteSpace=wrap;html=1;align=center;" parent="1" vertex="1">
          <mxGeometry x="515" y="1800" width="90" height="60" as="geometry" />
        </mxCell>
        <mxCell id="65Ibzihye3PbVpg7L_qn-38" value="" style="fontSize=12;html=1;endArrow=ERmany;rounded=0;" parent="1" source="65Ibzihye3PbVpg7L_qn-37" target="65Ibzihye3PbVpg7L_qn-14" edge="1">
          <mxGeometry width="100" height="100" relative="1" as="geometry">
            <mxPoint x="770" y="1875" as="sourcePoint" />
            <mxPoint x="870" y="1775" as="targetPoint" />
          </mxGeometry>
        </mxCell>
        <mxCell id="65Ibzihye3PbVpg7L_qn-39" value="" style="endArrow=none;html=1;rounded=0;" parent="1" source="65Ibzihye3PbVpg7L_qn-37" target="65Ibzihye3PbVpg7L_qn-35" edge="1">
          <mxGeometry relative="1" as="geometry">
            <mxPoint x="740" y="1785" as="sourcePoint" />
            <mxPoint x="900" y="1785" as="targetPoint" />
          </mxGeometry>
        </mxCell>
        <mxCell id="65Ibzihye3PbVpg7L_qn-40" value="Address" style="ellipse;whiteSpace=wrap;html=1;align=center;" parent="1" vertex="1">
          <mxGeometry x="345" y="1710" width="100" height="40" as="geometry" />
        </mxCell>
        <mxCell id="65Ibzihye3PbVpg7L_qn-41" value="coordinates" style="ellipse;whiteSpace=wrap;html=1;align=center;" parent="1" vertex="1">
          <mxGeometry x="510" y="1580" width="100" height="40" as="geometry" />
        </mxCell>
        <mxCell id="65Ibzihye3PbVpg7L_qn-42" value="City" style="ellipse;whiteSpace=wrap;html=1;align=center;rotation=0;" parent="1" vertex="1">
          <mxGeometry x="340" y="1610" width="100" height="40" as="geometry" />
        </mxCell>
        <mxCell id="65Ibzihye3PbVpg7L_qn-44" value="" style="endArrow=none;html=1;rounded=0;" parent="1" source="65Ibzihye3PbVpg7L_qn-35" target="65Ibzihye3PbVpg7L_qn-42" edge="1">
          <mxGeometry width="50" height="50" relative="1" as="geometry">
            <mxPoint x="630" y="1750" as="sourcePoint" />
            <mxPoint x="680" y="1700" as="targetPoint" />
          </mxGeometry>
        </mxCell>
        <mxCell id="65Ibzihye3PbVpg7L_qn-45" value="" style="endArrow=none;html=1;rounded=0;" parent="1" source="65Ibzihye3PbVpg7L_qn-35" target="65Ibzihye3PbVpg7L_qn-41" edge="1">
          <mxGeometry width="50" height="50" relative="1" as="geometry">
            <mxPoint x="540" y="1670" as="sourcePoint" />
            <mxPoint x="590" y="1620" as="targetPoint" />
          </mxGeometry>
        </mxCell>
        <mxCell id="65Ibzihye3PbVpg7L_qn-46" value="" style="endArrow=none;html=1;rounded=0;" parent="1" source="65Ibzihye3PbVpg7L_qn-35" target="65Ibzihye3PbVpg7L_qn-40" edge="1">
          <mxGeometry width="50" height="50" relative="1" as="geometry">
            <mxPoint x="390" y="1680" as="sourcePoint" />
            <mxPoint x="440" y="1630" as="targetPoint" />
          </mxGeometry>
        </mxCell>
        <mxCell id="65Ibzihye3PbVpg7L_qn-47" value="Country" style="ellipse;whiteSpace=wrap;html=1;align=center;" parent="1" vertex="1">
          <mxGeometry x="680" y="1580" width="100" height="40" as="geometry" />
        </mxCell>
        <mxCell id="65Ibzihye3PbVpg7L_qn-48" value="" style="endArrow=none;html=1;rounded=0;" parent="1" source="65Ibzihye3PbVpg7L_qn-35" target="65Ibzihye3PbVpg7L_qn-47" edge="1">
          <mxGeometry width="50" height="50" relative="1" as="geometry">
            <mxPoint x="585" y="1850" as="sourcePoint" />
            <mxPoint x="490" y="1800" as="targetPoint" />
          </mxGeometry>
        </mxCell>
        <mxCell id="65Ibzihye3PbVpg7L_qn-52" value="conducted" style="shape=rhombus;perimeter=rhombusPerimeter;whiteSpace=wrap;html=1;align=center;" parent="1" vertex="1">
          <mxGeometry x="670" y="1905" width="120" height="60" as="geometry" />
        </mxCell>
        <mxCell id="65Ibzihye3PbVpg7L_qn-53" value="" style="endArrow=none;html=1;rounded=0;" parent="1" source="65Ibzihye3PbVpg7L_qn-14" target="65Ibzihye3PbVpg7L_qn-52" edge="1">
          <mxGeometry relative="1" as="geometry">
            <mxPoint x="790" y="1785" as="sourcePoint" />
            <mxPoint x="950" y="1785" as="targetPoint" />
          </mxGeometry>
        </mxCell>
        <mxCell id="65Ibzihye3PbVpg7L_qn-54" value="event" style="whiteSpace=wrap;html=1;align=center;" parent="1" vertex="1">
          <mxGeometry x="1350" y="1910" width="100" height="40" as="geometry" />
        </mxCell>
        <mxCell id="65Ibzihye3PbVpg7L_qn-55" value="" style="edgeStyle=entityRelationEdgeStyle;fontSize=12;html=1;endArrow=ERoneToMany;rounded=0;" parent="1" source="65Ibzihye3PbVpg7L_qn-52" target="65Ibzihye3PbVpg7L_qn-54" edge="1">
          <mxGeometry width="100" height="100" relative="1" as="geometry">
            <mxPoint x="1010" y="1910" as="sourcePoint" />
            <mxPoint x="1110" y="1810" as="targetPoint" />
          </mxGeometry>
        </mxCell>
        <mxCell id="65Ibzihye3PbVpg7L_qn-56" value="building" style="whiteSpace=wrap;html=1;align=center;" parent="1" vertex="1">
          <mxGeometry x="1350" y="2132" width="100" height="40" as="geometry" />
        </mxCell>
        <mxCell id="65Ibzihye3PbVpg7L_qn-57" value="performance" style="whiteSpace=wrap;html=1;align=center;" parent="1" vertex="1">
          <mxGeometry x="2120" y="1910" width="100" height="40" as="geometry" />
        </mxCell>
        <mxCell id="65Ibzihye3PbVpg7L_qn-59" value="features" style="shape=rhombus;perimeter=rhombusPerimeter;whiteSpace=wrap;html=1;align=center;" parent="1" vertex="1">
          <mxGeometry x="1690" y="1900" width="120" height="60" as="geometry" />
        </mxCell>
        <mxCell id="65Ibzihye3PbVpg7L_qn-60" value="" style="edgeStyle=entityRelationEdgeStyle;fontSize=12;html=1;endArrow=ERoneToMany;rounded=0;" parent="1" source="65Ibzihye3PbVpg7L_qn-59" target="65Ibzihye3PbVpg7L_qn-57" edge="1">
          <mxGeometry width="100" height="100" relative="1" as="geometry">
            <mxPoint x="1980" y="1930" as="sourcePoint" />
            <mxPoint x="1950" y="2110" as="targetPoint" />
          </mxGeometry>
        </mxCell>
        <mxCell id="65Ibzihye3PbVpg7L_qn-61" value="" style="endArrow=none;html=1;rounded=0;" parent="1" source="65Ibzihye3PbVpg7L_qn-54" target="65Ibzihye3PbVpg7L_qn-59" edge="1">
          <mxGeometry relative="1" as="geometry">
            <mxPoint x="1420" y="2040" as="sourcePoint" />
            <mxPoint x="1580" y="2040" as="targetPoint" />
          </mxGeometry>
        </mxCell>
        <mxCell id="65Ibzihye3PbVpg7L_qn-66" value="takes place" style="shape=rhombus;perimeter=rhombusPerimeter;whiteSpace=wrap;html=1;align=center;" parent="1" vertex="1">
          <mxGeometry x="1340" y="2023" width="120" height="60" as="geometry" />
        </mxCell>
        <mxCell id="65Ibzihye3PbVpg7L_qn-67" value="" style="endArrow=none;html=1;rounded=0;" parent="1" source="65Ibzihye3PbVpg7L_qn-66" target="65Ibzihye3PbVpg7L_qn-56" edge="1">
          <mxGeometry relative="1" as="geometry">
            <mxPoint x="1380" y="2039" as="sourcePoint" />
            <mxPoint x="1540" y="2039" as="targetPoint" />
          </mxGeometry>
        </mxCell>
        <mxCell id="65Ibzihye3PbVpg7L_qn-68" value="" style="fontSize=12;html=1;endArrow=ERoneToMany;rounded=0;" parent="1" source="65Ibzihye3PbVpg7L_qn-66" target="65Ibzihye3PbVpg7L_qn-54" edge="1">
          <mxGeometry width="100" height="100" relative="1" as="geometry">
            <mxPoint x="1140" y="2191.5600000000004" as="sourcePoint" />
            <mxPoint x="1326.7" y="1990" as="targetPoint" />
          </mxGeometry>
        </mxCell>
        <mxCell id="65Ibzihye3PbVpg7L_qn-70" value="name" style="ellipse;whiteSpace=wrap;html=1;align=center;" parent="1" vertex="1">
          <mxGeometry x="1510" y="2059" width="100" height="40" as="geometry" />
        </mxCell>
        <mxCell id="65Ibzihye3PbVpg7L_qn-71" value="description" style="ellipse;whiteSpace=wrap;html=1;align=center;" parent="1" vertex="1">
          <mxGeometry x="1210" y="2059" width="100" height="40" as="geometry" />
        </mxCell>
        <mxCell id="65Ibzihye3PbVpg7L_qn-72" value="capacity" style="ellipse;whiteSpace=wrap;html=1;align=center;" parent="1" vertex="1">
          <mxGeometry x="1210" y="2219" width="100" height="40" as="geometry" />
        </mxCell>
        <mxCell id="65Ibzihye3PbVpg7L_qn-73" value="" style="endArrow=none;html=1;rounded=0;" parent="1" source="65Ibzihye3PbVpg7L_qn-71" target="65Ibzihye3PbVpg7L_qn-56" edge="1">
          <mxGeometry width="50" height="50" relative="1" as="geometry">
            <mxPoint x="1450" y="2249" as="sourcePoint" />
            <mxPoint x="1500" y="2199" as="targetPoint" />
          </mxGeometry>
        </mxCell>
        <mxCell id="65Ibzihye3PbVpg7L_qn-75" value="" style="endArrow=none;html=1;rounded=0;" parent="1" source="65Ibzihye3PbVpg7L_qn-72" target="65Ibzihye3PbVpg7L_qn-56" edge="1">
          <mxGeometry width="50" height="50" relative="1" as="geometry">
            <mxPoint x="1350" y="2249" as="sourcePoint" />
            <mxPoint x="1400" y="2199" as="targetPoint" />
          </mxGeometry>
        </mxCell>
        <mxCell id="65Ibzihye3PbVpg7L_qn-76" value="" style="endArrow=none;html=1;rounded=0;" parent="1" source="65Ibzihye3PbVpg7L_qn-56" target="65Ibzihye3PbVpg7L_qn-70" edge="1">
          <mxGeometry width="50" height="50" relative="1" as="geometry">
            <mxPoint x="1490" y="2221" as="sourcePoint" />
            <mxPoint x="1556" y="2189" as="targetPoint" />
          </mxGeometry>
        </mxCell>
        <mxCell id="65Ibzihye3PbVpg7L_qn-77" value="equipment" style="shape=ext;margin=3;double=1;whiteSpace=wrap;html=1;align=center;" parent="1" vertex="1">
          <mxGeometry x="1350" y="2379" width="100" height="40" as="geometry" />
        </mxCell>
        <mxCell id="65Ibzihye3PbVpg7L_qn-78" value="needs" style="shape=rhombus;double=1;perimeter=rhombusPerimeter;whiteSpace=wrap;html=1;align=center;" parent="1" vertex="1">
          <mxGeometry x="1340" y="2249" width="120" height="60" as="geometry" />
        </mxCell>
        <mxCell id="65Ibzihye3PbVpg7L_qn-81" value="" style="endArrow=none;html=1;rounded=0;" parent="1" source="65Ibzihye3PbVpg7L_qn-87" target="65Ibzihye3PbVpg7L_qn-77" edge="1">
          <mxGeometry width="50" height="50" relative="1" as="geometry">
            <mxPoint x="1279.9999999999968" y="2399" as="sourcePoint" />
            <mxPoint x="1340" y="2429" as="targetPoint" />
          </mxGeometry>
        </mxCell>
        <mxCell id="65Ibzihye3PbVpg7L_qn-85" value="building_id" style="ellipse;whiteSpace=wrap;html=1;align=center;fontStyle=4;" parent="1" vertex="1">
          <mxGeometry x="1520" y="2219" width="100" height="40" as="geometry" />
        </mxCell>
        <mxCell id="65Ibzihye3PbVpg7L_qn-86" value="" style="endArrow=none;html=1;rounded=0;" parent="1" source="65Ibzihye3PbVpg7L_qn-56" target="65Ibzihye3PbVpg7L_qn-85" edge="1">
          <mxGeometry width="50" height="50" relative="1" as="geometry">
            <mxPoint x="1400" y="2179" as="sourcePoint" />
            <mxPoint x="1450" y="2129" as="targetPoint" />
          </mxGeometry>
        </mxCell>
        <mxCell id="65Ibzihye3PbVpg7L_qn-87" value="&lt;span style=&quot;border-bottom: 1px dotted;&quot;&gt;name&lt;/span&gt;" style="ellipse;whiteSpace=wrap;html=1;align=center;" parent="1" vertex="1">
          <mxGeometry x="1180" y="2379" width="100" height="40" as="geometry" />
        </mxCell>
        <mxCell id="65Ibzihye3PbVpg7L_qn-88" value="" style="endArrow=none;html=1;rounded=0;" parent="1" source="65Ibzihye3PbVpg7L_qn-77" target="65Ibzihye3PbVpg7L_qn-89" edge="1">
          <mxGeometry width="50" height="50" relative="1" as="geometry">
            <mxPoint x="1360" y="2479" as="sourcePoint" />
            <mxPoint x="1540" y="2399" as="targetPoint" />
          </mxGeometry>
        </mxCell>
        <mxCell id="65Ibzihye3PbVpg7L_qn-89" value="quantity" style="ellipse;whiteSpace=wrap;html=1;align=center;" parent="1" vertex="1">
          <mxGeometry x="1520" y="2379" width="100" height="40" as="geometry" />
        </mxCell>
        <mxCell id="65Ibzihye3PbVpg7L_qn-90" value="" style="fontSize=12;html=1;endArrow=ERoneToMany;rounded=0;" parent="1" source="65Ibzihye3PbVpg7L_qn-78" target="65Ibzihye3PbVpg7L_qn-77" edge="1">
          <mxGeometry width="100" height="100" relative="1" as="geometry">
            <mxPoint x="1370" y="2339" as="sourcePoint" />
            <mxPoint x="1510" y="2339" as="targetPoint" />
          </mxGeometry>
        </mxCell>
        <mxCell id="65Ibzihye3PbVpg7L_qn-91" value="" style="endArrow=none;html=1;rounded=0;" parent="1" source="65Ibzihye3PbVpg7L_qn-56" target="65Ibzihye3PbVpg7L_qn-78" edge="1">
          <mxGeometry relative="1" as="geometry">
            <mxPoint x="1340" y="2289" as="sourcePoint" />
            <mxPoint x="1500" y="2289" as="targetPoint" />
          </mxGeometry>
        </mxCell>
        <mxCell id="65Ibzihye3PbVpg7L_qn-93" value="staff" style="rounded=1;arcSize=10;whiteSpace=wrap;html=1;align=center;" parent="1" vertex="1">
          <mxGeometry x="360" y="2490" width="100" height="40" as="geometry" />
        </mxCell>
        <mxCell id="65Ibzihye3PbVpg7L_qn-94" value="" style="endArrow=none;html=1;rounded=0;" parent="1" source="65Ibzihye3PbVpg7L_qn-96" target="65Ibzihye3PbVpg7L_qn-93" edge="1">
          <mxGeometry width="50" height="50" relative="1" as="geometry">
            <mxPoint x="360" y="2570" as="sourcePoint" />
            <mxPoint x="390" y="2558" as="targetPoint" />
          </mxGeometry>
        </mxCell>
        <mxCell id="65Ibzihye3PbVpg7L_qn-96" value="name" style="ellipse;whiteSpace=wrap;html=1;align=center;" parent="1" vertex="1">
          <mxGeometry x="230" y="2490" width="100" height="40" as="geometry" />
        </mxCell>
        <mxCell id="65Ibzihye3PbVpg7L_qn-97" value="staff_id" style="ellipse;whiteSpace=wrap;html=1;align=center;fontStyle=4;" parent="1" vertex="1">
          <mxGeometry x="500" y="2610" width="100" height="40" as="geometry" />
        </mxCell>
        <mxCell id="65Ibzihye3PbVpg7L_qn-98" value="" style="endArrow=none;html=1;rounded=0;" parent="1" source="65Ibzihye3PbVpg7L_qn-97" target="65Ibzihye3PbVpg7L_qn-93" edge="1">
          <mxGeometry width="50" height="50" relative="1" as="geometry">
            <mxPoint x="320" y="2582" as="sourcePoint" />
            <mxPoint x="386" y="2550" as="targetPoint" />
          </mxGeometry>
        </mxCell>
        <mxCell id="65Ibzihye3PbVpg7L_qn-99" value="" style="endArrow=none;html=1;rounded=0;" parent="1" source="65Ibzihye3PbVpg7L_qn-93" target="65Ibzihye3PbVpg7L_qn-100" edge="1">
          <mxGeometry width="50" height="50" relative="1" as="geometry">
            <mxPoint x="500" y="2630" as="sourcePoint" />
            <mxPoint x="510" y="2560" as="targetPoint" />
          </mxGeometry>
        </mxCell>
        <mxCell id="65Ibzihye3PbVpg7L_qn-100" value="birthdate" style="ellipse;whiteSpace=wrap;html=1;align=center;" parent="1" vertex="1">
          <mxGeometry x="220" y="2610" width="100" height="40" as="geometry" />
        </mxCell>
        <mxCell id="65Ibzihye3PbVpg7L_qn-101" value="Age" style="ellipse;whiteSpace=wrap;html=1;align=center;dashed=1;" parent="1" vertex="1">
          <mxGeometry x="360" y="2610" width="100" height="40" as="geometry" />
        </mxCell>
        <mxCell id="65Ibzihye3PbVpg7L_qn-102" value="" style="endArrow=none;html=1;rounded=0;" parent="1" source="65Ibzihye3PbVpg7L_qn-93" target="65Ibzihye3PbVpg7L_qn-101" edge="1">
          <mxGeometry width="50" height="50" relative="1" as="geometry">
            <mxPoint x="460" y="2665" as="sourcePoint" />
            <mxPoint x="526" y="2633" as="targetPoint" />
          </mxGeometry>
        </mxCell>
        <mxCell id="65Ibzihye3PbVpg7L_qn-106" value="" style="endArrow=none;html=1;rounded=0;" parent="1" edge="1">
          <mxGeometry relative="1" as="geometry">
            <mxPoint x="410" y="2403" as="sourcePoint" />
            <mxPoint x="410" y="2354" as="targetPoint" />
          </mxGeometry>
        </mxCell>
        <mxCell id="65Ibzihye3PbVpg7L_qn-108" value="" style="endArrow=none;html=1;rounded=0;" parent="1" edge="1">
          <mxGeometry width="50" height="50" relative="1" as="geometry">
            <mxPoint x="460" y="2334" as="sourcePoint" />
            <mxPoint x="509.9999999999891" y="2334" as="targetPoint" />
          </mxGeometry>
        </mxCell>
        <mxCell id="65Ibzihye3PbVpg7L_qn-112" value="" style="endArrow=none;html=1;rounded=0;" parent="1" source="5PiXKEkqAaMQAXL7R4vB-1" target="5PiXKEkqAaMQAXL7R4vB-3" edge="1">
          <mxGeometry relative="1" as="geometry">
            <mxPoint x="680" y="2423" as="sourcePoint" />
            <mxPoint x="740" y="2423" as="targetPoint" />
          </mxGeometry>
        </mxCell>
        <mxCell id="5PiXKEkqAaMQAXL7R4vB-1" value="has" style="shape=rhombus;perimeter=rhombusPerimeter;whiteSpace=wrap;html=1;align=center;" vertex="1" parent="1">
          <mxGeometry x="560" y="2480" width="120" height="60" as="geometry" />
        </mxCell>
        <mxCell id="5PiXKEkqAaMQAXL7R4vB-3" value="Experience" style="rounded=1;arcSize=10;whiteSpace=wrap;html=1;align=center;" vertex="1" parent="1">
          <mxGeometry x="750" y="2490" width="100" height="40" as="geometry" />
        </mxCell>
        <mxCell id="5PiXKEkqAaMQAXL7R4vB-4" value="Description" style="ellipse;whiteSpace=wrap;html=1;align=center;" vertex="1" parent="1">
          <mxGeometry x="750" y="2560" width="100" height="40" as="geometry" />
        </mxCell>
        <mxCell id="5PiXKEkqAaMQAXL7R4vB-5" value="ID" style="ellipse;whiteSpace=wrap;html=1;align=center;fontStyle=4;" vertex="1" parent="1">
          <mxGeometry x="750" y="2403" width="100" height="40" as="geometry" />
        </mxCell>
        <mxCell id="5PiXKEkqAaMQAXL7R4vB-7" value="" style="endArrow=none;html=1;rounded=0;" edge="1" parent="1" source="5PiXKEkqAaMQAXL7R4vB-3" target="5PiXKEkqAaMQAXL7R4vB-5">
          <mxGeometry width="50" height="50" relative="1" as="geometry">
            <mxPoint x="710" y="2450" as="sourcePoint" />
            <mxPoint x="790" y="2310" as="targetPoint" />
          </mxGeometry>
        </mxCell>
        <mxCell id="5PiXKEkqAaMQAXL7R4vB-8" value="" style="endArrow=none;html=1;rounded=0;" edge="1" parent="1" source="5PiXKEkqAaMQAXL7R4vB-4" target="5PiXKEkqAaMQAXL7R4vB-3">
          <mxGeometry width="50" height="50" relative="1" as="geometry">
            <mxPoint x="710" y="2450" as="sourcePoint" />
            <mxPoint x="760" y="2400" as="targetPoint" />
          </mxGeometry>
        </mxCell>
        <mxCell id="5PiXKEkqAaMQAXL7R4vB-9" value="is" style="shape=rhombus;perimeter=rhombusPerimeter;whiteSpace=wrap;html=1;align=center;" vertex="1" parent="1">
          <mxGeometry x="350" y="2403" width="120" height="60" as="geometry" />
        </mxCell>
        <mxCell id="5PiXKEkqAaMQAXL7R4vB-10" value="Role" style="rounded=1;arcSize=10;whiteSpace=wrap;html=1;align=center;" vertex="1" parent="1">
          <mxGeometry x="360" y="2314" width="100" height="40" as="geometry" />
        </mxCell>
        <mxCell id="5PiXKEkqAaMQAXL7R4vB-12" value="Description" style="ellipse;whiteSpace=wrap;html=1;align=center;" vertex="1" parent="1">
          <mxGeometry x="510" y="2314" width="100" height="40" as="geometry" />
        </mxCell>
        <mxCell id="5PiXKEkqAaMQAXL7R4vB-14" value="ID" style="ellipse;whiteSpace=wrap;html=1;align=center;fontStyle=4;" vertex="1" parent="1">
          <mxGeometry x="360" y="2240" width="100" height="40" as="geometry" />
        </mxCell>
        <mxCell id="5PiXKEkqAaMQAXL7R4vB-15" value="" style="endArrow=none;html=1;rounded=0;" edge="1" parent="1" source="5PiXKEkqAaMQAXL7R4vB-10" target="5PiXKEkqAaMQAXL7R4vB-14">
          <mxGeometry width="50" height="50" relative="1" as="geometry">
            <mxPoint x="540" y="2480" as="sourcePoint" />
            <mxPoint x="590" y="2430" as="targetPoint" />
          </mxGeometry>
        </mxCell>
        <mxCell id="5PiXKEkqAaMQAXL7R4vB-16" value="" style="fontSize=12;html=1;endArrow=ERoneToMany;rounded=0;" edge="1" parent="1" source="5PiXKEkqAaMQAXL7R4vB-9" target="65Ibzihye3PbVpg7L_qn-93">
          <mxGeometry width="100" height="100" relative="1" as="geometry">
            <mxPoint x="210" y="2500" as="sourcePoint" />
            <mxPoint x="310" y="2400" as="targetPoint" />
          </mxGeometry>
        </mxCell>
        <mxCell id="5PiXKEkqAaMQAXL7R4vB-17" value="" style="fontSize=12;html=1;endArrow=ERoneToMany;rounded=0;" edge="1" parent="1" source="5PiXKEkqAaMQAXL7R4vB-1" target="65Ibzihye3PbVpg7L_qn-93">
          <mxGeometry width="100" height="100" relative="1" as="geometry">
            <mxPoint x="420" y="2473" as="sourcePoint" />
            <mxPoint x="420" y="2500" as="targetPoint" />
          </mxGeometry>
        </mxCell>
        <mxCell id="5PiXKEkqAaMQAXL7R4vB-18" value="Continent" style="rounded=1;arcSize=10;whiteSpace=wrap;html=1;align=center;" vertex="1" parent="1">
          <mxGeometry x="820" y="1710" width="100" height="40" as="geometry" />
        </mxCell>
        <mxCell id="5PiXKEkqAaMQAXL7R4vB-19" value="is in" style="shape=rhombus;perimeter=rhombusPerimeter;whiteSpace=wrap;html=1;align=center;" vertex="1" parent="1">
          <mxGeometry x="660" y="1700" width="120" height="60" as="geometry" />
        </mxCell>
        <mxCell id="5PiXKEkqAaMQAXL7R4vB-20" value="" style="endArrow=none;html=1;rounded=0;" edge="1" parent="1" source="5PiXKEkqAaMQAXL7R4vB-19" target="5PiXKEkqAaMQAXL7R4vB-18">
          <mxGeometry width="50" height="50" relative="1" as="geometry">
            <mxPoint x="860" y="1550" as="sourcePoint" />
            <mxPoint x="910" y="1500" as="targetPoint" />
          </mxGeometry>
        </mxCell>
        <mxCell id="5PiXKEkqAaMQAXL7R4vB-22" value="ID" style="ellipse;whiteSpace=wrap;html=1;align=center;fontStyle=4;" vertex="1" parent="1">
          <mxGeometry x="820" y="1780" width="100" height="40" as="geometry" />
        </mxCell>
        <mxCell id="5PiXKEkqAaMQAXL7R4vB-23" value="" style="endArrow=none;html=1;rounded=0;" edge="1" parent="1" source="5PiXKEkqAaMQAXL7R4vB-18" target="5PiXKEkqAaMQAXL7R4vB-22">
          <mxGeometry width="50" height="50" relative="1" as="geometry">
            <mxPoint x="1020" y="1560" as="sourcePoint" />
            <mxPoint x="1070" y="1510" as="targetPoint" />
          </mxGeometry>
        </mxCell>
        <mxCell id="5PiXKEkqAaMQAXL7R4vB-24" value="Description" style="ellipse;whiteSpace=wrap;html=1;align=center;" vertex="1" parent="1">
          <mxGeometry x="820" y="1640" width="100" height="40" as="geometry" />
        </mxCell>
        <mxCell id="5PiXKEkqAaMQAXL7R4vB-25" value="" style="endArrow=none;html=1;rounded=0;" edge="1" parent="1" source="5PiXKEkqAaMQAXL7R4vB-24" target="5PiXKEkqAaMQAXL7R4vB-18">
          <mxGeometry width="50" height="50" relative="1" as="geometry">
            <mxPoint x="1020" y="1560" as="sourcePoint" />
            <mxPoint x="1070" y="1510" as="targetPoint" />
          </mxGeometry>
        </mxCell>
        <mxCell id="5PiXKEkqAaMQAXL7R4vB-26" value="" style="fontSize=12;html=1;endArrow=ERoneToMany;rounded=0;" edge="1" parent="1" source="5PiXKEkqAaMQAXL7R4vB-19" target="65Ibzihye3PbVpg7L_qn-35">
          <mxGeometry width="100" height="100" relative="1" as="geometry">
            <mxPoint x="770" y="1510" as="sourcePoint" />
            <mxPoint x="660" y="1670" as="targetPoint" />
          </mxGeometry>
        </mxCell>
        <mxCell id="5PiXKEkqAaMQAXL7R4vB-27" value="" style="endArrow=none;html=1;rounded=0;" edge="1" parent="1" source="65Ibzihye3PbVpg7L_qn-57" target="5PiXKEkqAaMQAXL7R4vB-38">
          <mxGeometry width="50" height="50" relative="1" as="geometry">
            <mxPoint x="2202.299395464675" y="1950" as="sourcePoint" />
            <mxPoint x="2299.999999999989" y="1930" as="targetPoint" />
          </mxGeometry>
        </mxCell>
        <mxCell id="5PiXKEkqAaMQAXL7R4vB-29" value="performance_type" style="rounded=1;arcSize=10;whiteSpace=wrap;html=1;align=center;" vertex="1" parent="1">
          <mxGeometry x="2120" y="1720" width="100" height="40" as="geometry" />
        </mxCell>
        <mxCell id="5PiXKEkqAaMQAXL7R4vB-30" value="is" style="shape=rhombus;perimeter=rhombusPerimeter;whiteSpace=wrap;html=1;align=center;" vertex="1" parent="1">
          <mxGeometry x="2110" y="1810" width="120" height="60" as="geometry" />
        </mxCell>
        <mxCell id="5PiXKEkqAaMQAXL7R4vB-31" value="" style="endArrow=none;html=1;rounded=0;" edge="1" parent="1" source="5PiXKEkqAaMQAXL7R4vB-30" target="5PiXKEkqAaMQAXL7R4vB-29">
          <mxGeometry width="50" height="50" relative="1" as="geometry">
            <mxPoint x="2110" y="1820" as="sourcePoint" />
            <mxPoint x="2160" y="1770" as="targetPoint" />
          </mxGeometry>
        </mxCell>
        <mxCell id="5PiXKEkqAaMQAXL7R4vB-32" value="" style="fontSize=12;html=1;endArrow=ERoneToMany;rounded=0;" edge="1" parent="1" source="5PiXKEkqAaMQAXL7R4vB-30">
          <mxGeometry width="100" height="100" relative="1" as="geometry">
            <mxPoint x="2380" y="1980" as="sourcePoint" />
            <mxPoint x="2170" y="1910" as="targetPoint" />
          </mxGeometry>
        </mxCell>
        <mxCell id="5PiXKEkqAaMQAXL7R4vB-33" value="Description" style="ellipse;whiteSpace=wrap;html=1;align=center;" vertex="1" parent="1">
          <mxGeometry x="1960" y="1720" width="100" height="40" as="geometry" />
        </mxCell>
        <mxCell id="5PiXKEkqAaMQAXL7R4vB-34" value="ID" style="ellipse;whiteSpace=wrap;html=1;align=center;fontStyle=4;" vertex="1" parent="1">
          <mxGeometry x="2120" y="1610" width="100" height="40" as="geometry" />
        </mxCell>
        <mxCell id="5PiXKEkqAaMQAXL7R4vB-35" value="" style="endArrow=none;html=1;rounded=0;" edge="1" parent="1" source="5PiXKEkqAaMQAXL7R4vB-29" target="5PiXKEkqAaMQAXL7R4vB-34">
          <mxGeometry width="50" height="50" relative="1" as="geometry">
            <mxPoint x="1680" y="1860" as="sourcePoint" />
            <mxPoint x="2060" y="1770" as="targetPoint" />
          </mxGeometry>
        </mxCell>
        <mxCell id="5PiXKEkqAaMQAXL7R4vB-36" value="" style="endArrow=none;html=1;rounded=0;" edge="1" parent="1" source="5PiXKEkqAaMQAXL7R4vB-29" target="5PiXKEkqAaMQAXL7R4vB-33">
          <mxGeometry width="50" height="50" relative="1" as="geometry">
            <mxPoint x="2080" y="1860" as="sourcePoint" />
            <mxPoint x="2450" y="1840" as="targetPoint" />
          </mxGeometry>
        </mxCell>
        <mxCell id="5PiXKEkqAaMQAXL7R4vB-38" value="Time" style="ellipse;whiteSpace=wrap;html=1;align=center;" vertex="1" parent="1">
          <mxGeometry x="2120" y="2063" width="100" height="40" as="geometry" />
        </mxCell>
        <mxCell id="5PiXKEkqAaMQAXL7R4vB-43" value="" style="endArrow=none;html=1;rounded=0;" edge="1" parent="1" source="65Ibzihye3PbVpg7L_qn-57" target="5PiXKEkqAaMQAXL7R4vB-44">
          <mxGeometry width="50" height="50" relative="1" as="geometry">
            <mxPoint x="2186.463396706355" y="1950" as="sourcePoint" />
            <mxPoint x="2280" y="2000" as="targetPoint" />
          </mxGeometry>
        </mxCell>
        <mxCell id="5PiXKEkqAaMQAXL7R4vB-44" value="Duration" style="ellipse;whiteSpace=wrap;html=1;align=center;" vertex="1" parent="1">
          <mxGeometry x="2000" y="1990" width="100" height="40" as="geometry" />
        </mxCell>
        <mxCell id="5PiXKEkqAaMQAXL7R4vB-45" value="Artist" style="rounded=1;arcSize=10;whiteSpace=wrap;html=1;align=center;" vertex="1" parent="1">
          <mxGeometry x="2440" y="1910" width="100" height="40" as="geometry" />
        </mxCell>
        <mxCell id="5PiXKEkqAaMQAXL7R4vB-46" value="" style="fontSize=12;html=1;endArrow=ERoneToMany;rounded=0;" edge="1" parent="1" source="5PiXKEkqAaMQAXL7R4vB-45">
          <mxGeometry width="100" height="100" relative="1" as="geometry">
            <mxPoint x="2360" y="2303" as="sourcePoint" />
            <mxPoint x="2220" y="1930" as="targetPoint" />
          </mxGeometry>
        </mxCell>
        <mxCell id="5PiXKEkqAaMQAXL7R4vB-47" value="ID" style="ellipse;whiteSpace=wrap;html=1;align=center;fontStyle=4;" vertex="1" parent="1">
          <mxGeometry x="2240" y="1990" width="100" height="40" as="geometry" />
        </mxCell>
        <mxCell id="5PiXKEkqAaMQAXL7R4vB-48" value="" style="endArrow=none;html=1;rounded=0;" edge="1" parent="1" source="65Ibzihye3PbVpg7L_qn-57" target="5PiXKEkqAaMQAXL7R4vB-47">
          <mxGeometry width="50" height="50" relative="1" as="geometry">
            <mxPoint x="2220" y="1946.6666666666667" as="sourcePoint" />
            <mxPoint x="2320" y="1980" as="targetPoint" />
          </mxGeometry>
        </mxCell>
        <mxCell id="5PiXKEkqAaMQAXL7R4vB-49" style="edgeStyle=orthogonalEdgeStyle;rounded=0;orthogonalLoop=1;jettySize=auto;html=1;exitX=0.5;exitY=1;exitDx=0;exitDy=0;" edge="1" parent="1" source="5PiXKEkqAaMQAXL7R4vB-38" target="5PiXKEkqAaMQAXL7R4vB-38">
          <mxGeometry relative="1" as="geometry" />
        </mxCell>
        <mxCell id="5PiXKEkqAaMQAXL7R4vB-50" value="Name" style="ellipse;whiteSpace=wrap;html=1;align=center;" vertex="1" parent="1">
          <mxGeometry x="2380" y="1730" width="100" height="40" as="geometry" />
        </mxCell>
        <mxCell id="5PiXKEkqAaMQAXL7R4vB-51" value="Stagename" style="ellipse;whiteSpace=wrap;html=1;align=center;" vertex="1" parent="1">
          <mxGeometry x="2600" y="1820" width="100" height="40" as="geometry" />
        </mxCell>
        <mxCell id="5PiXKEkqAaMQAXL7R4vB-52" value="" style="endArrow=none;html=1;rounded=0;" edge="1" parent="1" source="5PiXKEkqAaMQAXL7R4vB-45" target="5PiXKEkqAaMQAXL7R4vB-50">
          <mxGeometry width="50" height="50" relative="1" as="geometry">
            <mxPoint x="2320" y="2090" as="sourcePoint" />
            <mxPoint x="2370" y="2040" as="targetPoint" />
          </mxGeometry>
        </mxCell>
        <mxCell id="5PiXKEkqAaMQAXL7R4vB-53" value="" style="endArrow=none;html=1;rounded=0;" edge="1" parent="1" source="5PiXKEkqAaMQAXL7R4vB-45" target="5PiXKEkqAaMQAXL7R4vB-51">
          <mxGeometry width="50" height="50" relative="1" as="geometry">
            <mxPoint x="2550" y="1924" as="sourcePoint" />
            <mxPoint x="2620" y="1902" as="targetPoint" />
          </mxGeometry>
        </mxCell>
        <mxCell id="5PiXKEkqAaMQAXL7R4vB-54" value="" style="endArrow=none;html=1;rounded=0;" edge="1" parent="1" target="5PiXKEkqAaMQAXL7R4vB-55" source="5PiXKEkqAaMQAXL7R4vB-45">
          <mxGeometry width="50" height="50" relative="1" as="geometry">
            <mxPoint x="2505" y="1954" as="sourcePoint" />
            <mxPoint x="2585" y="1984" as="targetPoint" />
          </mxGeometry>
        </mxCell>
        <mxCell id="5PiXKEkqAaMQAXL7R4vB-55" value="birthdate" style="ellipse;whiteSpace=wrap;html=1;align=center;" vertex="1" parent="1">
          <mxGeometry x="2540" y="2054" width="100" height="40" as="geometry" />
        </mxCell>
        <mxCell id="5PiXKEkqAaMQAXL7R4vB-56" value="" style="endArrow=none;html=1;rounded=0;" edge="1" parent="1" target="5PiXKEkqAaMQAXL7R4vB-57" source="5PiXKEkqAaMQAXL7R4vB-45">
          <mxGeometry width="50" height="50" relative="1" as="geometry">
            <mxPoint x="2450" y="1980" as="sourcePoint" />
            <mxPoint x="2530" y="2010" as="targetPoint" />
          </mxGeometry>
        </mxCell>
        <mxCell id="5PiXKEkqAaMQAXL7R4vB-57" value="site" style="ellipse;whiteSpace=wrap;html=1;align=center;" vertex="1" parent="1">
          <mxGeometry x="2340" y="2054" width="100" height="40" as="geometry" />
        </mxCell>
        <mxCell id="5PiXKEkqAaMQAXL7R4vB-58" value="" style="endArrow=none;html=1;rounded=0;" edge="1" parent="1" target="5PiXKEkqAaMQAXL7R4vB-59" source="5PiXKEkqAaMQAXL7R4vB-45">
          <mxGeometry width="50" height="50" relative="1" as="geometry">
            <mxPoint x="2436.9934765816715" y="1950" as="sourcePoint" />
            <mxPoint x="2390" y="2060" as="targetPoint" />
          </mxGeometry>
        </mxCell>
        <mxCell id="5PiXKEkqAaMQAXL7R4vB-59" value="Instagram profile" style="ellipse;whiteSpace=wrap;html=1;align=center;" vertex="1" parent="1">
          <mxGeometry x="2280" y="1800" width="100" height="40" as="geometry" />
        </mxCell>
        <mxCell id="5PiXKEkqAaMQAXL7R4vB-60" value="" style="fontSize=12;html=1;endArrow=ERoneToMany;rounded=0;" edge="1" parent="1" source="5PiXKEkqAaMQAXL7R4vB-61" target="5PiXKEkqAaMQAXL7R4vB-45">
          <mxGeometry width="100" height="100" relative="1" as="geometry">
            <mxPoint x="2770" y="1930" as="sourcePoint" />
            <mxPoint x="2610" y="1949.05" as="targetPoint" />
          </mxGeometry>
        </mxCell>
        <mxCell id="5PiXKEkqAaMQAXL7R4vB-61" value="part of" style="shape=rhombus;perimeter=rhombusPerimeter;whiteSpace=wrap;html=1;align=center;" vertex="1" parent="1">
          <mxGeometry x="2690" y="1900" width="120" height="60" as="geometry" />
        </mxCell>
        <mxCell id="5PiXKEkqAaMQAXL7R4vB-62" value="" style="fontSize=12;html=1;endArrow=ERoneToMany;rounded=0;" edge="1" parent="1" source="5PiXKEkqAaMQAXL7R4vB-61">
          <mxGeometry width="100" height="100" relative="1" as="geometry">
            <mxPoint x="2460" y="1950" as="sourcePoint" />
            <mxPoint x="2960" y="1930" as="targetPoint" />
          </mxGeometry>
        </mxCell>
        <mxCell id="5PiXKEkqAaMQAXL7R4vB-63" value="Band" style="rounded=1;arcSize=10;whiteSpace=wrap;html=1;align=center;" vertex="1" parent="1">
          <mxGeometry x="2960" y="1910" width="100" height="40" as="geometry" />
        </mxCell>
        <mxCell id="5PiXKEkqAaMQAXL7R4vB-64" value="ID" style="ellipse;whiteSpace=wrap;html=1;align=center;fontStyle=4;" vertex="1" parent="1">
          <mxGeometry x="2550" y="1740" width="100" height="40" as="geometry" />
        </mxCell>
        <mxCell id="5PiXKEkqAaMQAXL7R4vB-65" value="" style="endArrow=none;html=1;rounded=0;" edge="1" parent="1" source="5PiXKEkqAaMQAXL7R4vB-64" target="5PiXKEkqAaMQAXL7R4vB-45">
          <mxGeometry width="50" height="50" relative="1" as="geometry">
            <mxPoint x="2499.52" y="2040" as="sourcePoint" />
            <mxPoint x="2499.52" y="1950" as="targetPoint" />
          </mxGeometry>
        </mxCell>
        <mxCell id="5PiXKEkqAaMQAXL7R4vB-67" value="" style="endArrow=none;html=1;rounded=0;" edge="1" parent="1" source="5PiXKEkqAaMQAXL7R4vB-63" target="5PiXKEkqAaMQAXL7R4vB-68">
          <mxGeometry width="50" height="50" relative="1" as="geometry">
            <mxPoint x="2690" y="1970" as="sourcePoint" />
            <mxPoint x="2930" y="1860" as="targetPoint" />
          </mxGeometry>
        </mxCell>
        <mxCell id="5PiXKEkqAaMQAXL7R4vB-68" value="Formation Date" style="ellipse;whiteSpace=wrap;html=1;align=center;" vertex="1" parent="1">
          <mxGeometry x="2800" y="1830" width="100" height="40" as="geometry" />
        </mxCell>
        <mxCell id="5PiXKEkqAaMQAXL7R4vB-69" value="" style="endArrow=none;html=1;rounded=0;" edge="1" parent="1" target="5PiXKEkqAaMQAXL7R4vB-70" source="5PiXKEkqAaMQAXL7R4vB-63">
          <mxGeometry width="50" height="50" relative="1" as="geometry">
            <mxPoint x="2936" y="1978" as="sourcePoint" />
            <mxPoint x="2990" y="2038" as="targetPoint" />
          </mxGeometry>
        </mxCell>
        <mxCell id="5PiXKEkqAaMQAXL7R4vB-70" value="site" style="ellipse;whiteSpace=wrap;html=1;align=center;" vertex="1" parent="1">
          <mxGeometry x="2800" y="2000" width="100" height="40" as="geometry" />
        </mxCell>
        <mxCell id="5PiXKEkqAaMQAXL7R4vB-71" value="" style="endArrow=none;html=1;rounded=0;" edge="1" parent="1" target="5PiXKEkqAaMQAXL7R4vB-72" source="5PiXKEkqAaMQAXL7R4vB-63">
          <mxGeometry width="50" height="50" relative="1" as="geometry">
            <mxPoint x="3186" y="2150" as="sourcePoint" />
            <mxPoint x="3240" y="2210" as="targetPoint" />
          </mxGeometry>
        </mxCell>
        <mxCell id="5PiXKEkqAaMQAXL7R4vB-72" value="Name" style="ellipse;whiteSpace=wrap;html=1;align=center;" vertex="1" parent="1">
          <mxGeometry x="3140" y="2000" width="100" height="40" as="geometry" />
        </mxCell>
        <mxCell id="5PiXKEkqAaMQAXL7R4vB-73" value="" style="endArrow=none;html=1;rounded=0;" edge="1" parent="1" target="5PiXKEkqAaMQAXL7R4vB-74" source="5PiXKEkqAaMQAXL7R4vB-63">
          <mxGeometry width="50" height="50" relative="1" as="geometry">
            <mxPoint x="2506" y="1980" as="sourcePoint" />
            <mxPoint x="2560" y="2040" as="targetPoint" />
          </mxGeometry>
        </mxCell>
        <mxCell id="5PiXKEkqAaMQAXL7R4vB-74" value="Instagram Profile" style="ellipse;whiteSpace=wrap;html=1;align=center;" vertex="1" parent="1">
          <mxGeometry x="3140" y="1830" width="100" height="40" as="geometry" />
        </mxCell>
        <mxCell id="5PiXKEkqAaMQAXL7R4vB-75" value="ID" style="ellipse;whiteSpace=wrap;html=1;align=center;fontStyle=4;" vertex="1" parent="1">
          <mxGeometry x="2960" y="1790" width="100" height="40" as="geometry" />
        </mxCell>
        <mxCell id="5PiXKEkqAaMQAXL7R4vB-77" value="" style="endArrow=none;html=1;rounded=0;" edge="1" parent="1" source="5PiXKEkqAaMQAXL7R4vB-63" target="5PiXKEkqAaMQAXL7R4vB-75">
          <mxGeometry width="50" height="50" relative="1" as="geometry">
            <mxPoint x="2920" y="2060" as="sourcePoint" />
            <mxPoint x="2970" y="2010" as="targetPoint" />
          </mxGeometry>
        </mxCell>
        <mxCell id="5PiXKEkqAaMQAXL7R4vB-79" value="" style="fontSize=12;html=1;endArrow=ERoneToMany;rounded=0;" edge="1" parent="1" source="5PiXKEkqAaMQAXL7R4vB-80">
          <mxGeometry width="100" height="100" relative="1" as="geometry">
            <mxPoint x="2590" y="2200" as="sourcePoint" />
            <mxPoint x="2709.9999999999995" y="2200" as="targetPoint" />
          </mxGeometry>
        </mxCell>
        <mxCell id="5PiXKEkqAaMQAXL7R4vB-80" value="performs" style="shape=rhombus;perimeter=rhombusPerimeter;whiteSpace=wrap;html=1;align=center;" vertex="1" parent="1">
          <mxGeometry x="2430" y="2170" width="120" height="60" as="geometry" />
        </mxCell>
        <mxCell id="5PiXKEkqAaMQAXL7R4vB-81" value="" style="endArrow=none;html=1;rounded=0;" edge="1" parent="1" source="5PiXKEkqAaMQAXL7R4vB-80" target="5PiXKEkqAaMQAXL7R4vB-45">
          <mxGeometry relative="1" as="geometry">
            <mxPoint x="2720" y="2080" as="sourcePoint" />
            <mxPoint x="2880" y="2080" as="targetPoint" />
          </mxGeometry>
        </mxCell>
        <mxCell id="5PiXKEkqAaMQAXL7R4vB-82" value="" style="fontSize=12;html=1;endArrow=ERoneToMany;rounded=0;" edge="1" parent="1" source="5PiXKEkqAaMQAXL7R4vB-83">
          <mxGeometry width="100" height="100" relative="1" as="geometry">
            <mxPoint x="2980" y="2200" as="sourcePoint" />
            <mxPoint x="2810" y="2200" as="targetPoint" />
          </mxGeometry>
        </mxCell>
        <mxCell id="5PiXKEkqAaMQAXL7R4vB-83" value="is" style="shape=rhombus;perimeter=rhombusPerimeter;whiteSpace=wrap;html=1;align=center;" vertex="1" parent="1">
          <mxGeometry x="2950" y="2170" width="120" height="60" as="geometry" />
        </mxCell>
        <mxCell id="5PiXKEkqAaMQAXL7R4vB-84" value="" style="endArrow=none;html=1;rounded=0;" edge="1" parent="1">
          <mxGeometry relative="1" as="geometry">
            <mxPoint x="3009.44" y="2170" as="sourcePoint" />
            <mxPoint x="3009.44" y="1950" as="targetPoint" />
          </mxGeometry>
        </mxCell>
        <mxCell id="5PiXKEkqAaMQAXL7R4vB-85" value="Genre" style="rounded=1;arcSize=10;whiteSpace=wrap;html=1;align=center;" vertex="1" parent="1">
          <mxGeometry x="2710" y="2180" width="100" height="40" as="geometry" />
        </mxCell>
        <mxCell id="5PiXKEkqAaMQAXL7R4vB-86" value="ID" style="ellipse;whiteSpace=wrap;html=1;align=center;fontStyle=4;" vertex="1" parent="1">
          <mxGeometry x="2650" y="2103" width="100" height="40" as="geometry" />
        </mxCell>
        <mxCell id="5PiXKEkqAaMQAXL7R4vB-87" value="" style="endArrow=none;html=1;rounded=0;" edge="1" parent="1" target="5PiXKEkqAaMQAXL7R4vB-86">
          <mxGeometry width="50" height="50" relative="1" as="geometry">
            <mxPoint x="2760" y="2180" as="sourcePoint" />
            <mxPoint x="2720" y="2280" as="targetPoint" />
          </mxGeometry>
        </mxCell>
        <mxCell id="5PiXKEkqAaMQAXL7R4vB-88" value="Name" style="ellipse;whiteSpace=wrap;html=1;align=center;" vertex="1" parent="1">
          <mxGeometry x="2790" y="2103" width="100" height="40" as="geometry" />
        </mxCell>
        <mxCell id="5PiXKEkqAaMQAXL7R4vB-89" value="" style="endArrow=none;html=1;rounded=0;" edge="1" parent="1" target="5PiXKEkqAaMQAXL7R4vB-88" source="5PiXKEkqAaMQAXL7R4vB-85">
          <mxGeometry width="50" height="50" relative="1" as="geometry">
            <mxPoint x="2700" y="2360" as="sourcePoint" />
            <mxPoint x="2550" y="2590" as="targetPoint" />
          </mxGeometry>
        </mxCell>
        <mxCell id="5PiXKEkqAaMQAXL7R4vB-90" value="is" style="shape=rhombus;double=1;perimeter=rhombusPerimeter;whiteSpace=wrap;html=1;align=center;" vertex="1" parent="1">
          <mxGeometry x="2700" y="2293" width="120" height="60" as="geometry" />
        </mxCell>
        <mxCell id="5PiXKEkqAaMQAXL7R4vB-91" value="" style="fontSize=12;html=1;endArrow=ERoneToMany;rounded=0;" edge="1" parent="1" source="5PiXKEkqAaMQAXL7R4vB-90" target="5PiXKEkqAaMQAXL7R4vB-93">
          <mxGeometry width="100" height="100" relative="1" as="geometry">
            <mxPoint x="2730" y="2383" as="sourcePoint" />
            <mxPoint x="2760" y="2423" as="targetPoint" />
          </mxGeometry>
        </mxCell>
        <mxCell id="5PiXKEkqAaMQAXL7R4vB-92" value="" style="endArrow=none;html=1;rounded=0;" edge="1" parent="1" target="5PiXKEkqAaMQAXL7R4vB-90" source="5PiXKEkqAaMQAXL7R4vB-85">
          <mxGeometry relative="1" as="geometry">
            <mxPoint x="2800" y="2260" as="sourcePoint" />
            <mxPoint x="2860" y="2333" as="targetPoint" />
          </mxGeometry>
        </mxCell>
        <mxCell id="5PiXKEkqAaMQAXL7R4vB-93" value="Subgenre" style="shape=ext;margin=3;double=1;whiteSpace=wrap;html=1;align=center;" vertex="1" parent="1">
          <mxGeometry x="2710" y="2403" width="100" height="40" as="geometry" />
        </mxCell>
        <mxCell id="5PiXKEkqAaMQAXL7R4vB-95" value="" style="endArrow=none;html=1;rounded=0;" edge="1" parent="1" target="5PiXKEkqAaMQAXL7R4vB-97" source="5PiXKEkqAaMQAXL7R4vB-93">
          <mxGeometry width="50" height="50" relative="1" as="geometry">
            <mxPoint x="2870" y="2500" as="sourcePoint" />
            <mxPoint x="2879" y="2443" as="targetPoint" />
          </mxGeometry>
        </mxCell>
        <mxCell id="5PiXKEkqAaMQAXL7R4vB-97" value="&lt;span style=&quot;border-bottom: 1px dotted;&quot;&gt;Name&lt;/span&gt;" style="ellipse;whiteSpace=wrap;html=1;align=center;" vertex="1" parent="1">
          <mxGeometry x="2710" y="2500" width="100" height="40" as="geometry" />
        </mxCell>
        <mxCell id="5PiXKEkqAaMQAXL7R4vB-98" value="Που παει το staff??????" style="ellipse;shape=cloud;whiteSpace=wrap;html=1;" vertex="1" parent="1">
          <mxGeometry x="220" y="2370" width="120" height="80" as="geometry" />
        </mxCell>
        <mxCell id="5PiXKEkqAaMQAXL7R4vB-99" value="Visitor" style="rounded=1;arcSize=10;whiteSpace=wrap;html=1;align=center;" vertex="1" parent="1">
          <mxGeometry x="1350" y="1380" width="100" height="40" as="geometry" />
        </mxCell>
        <mxCell id="5PiXKEkqAaMQAXL7R4vB-100" value="" style="endArrow=none;html=1;rounded=0;" edge="1" parent="1" source="5PiXKEkqAaMQAXL7R4vB-99" target="5PiXKEkqAaMQAXL7R4vB-101">
          <mxGeometry width="50" height="50" relative="1" as="geometry">
            <mxPoint x="1370" y="1590" as="sourcePoint" />
            <mxPoint x="1530" y="1400" as="targetPoint" />
          </mxGeometry>
        </mxCell>
        <mxCell id="5PiXKEkqAaMQAXL7R4vB-101" value="Name" style="ellipse;whiteSpace=wrap;html=1;align=center;" vertex="1" parent="1">
          <mxGeometry x="1510" y="1380" width="100" height="40" as="geometry" />
        </mxCell>
        <mxCell id="5PiXKEkqAaMQAXL7R4vB-102" value="" style="endArrow=none;html=1;rounded=0;" edge="1" parent="1" target="5PiXKEkqAaMQAXL7R4vB-103" source="5PiXKEkqAaMQAXL7R4vB-99">
          <mxGeometry width="50" height="50" relative="1" as="geometry">
            <mxPoint x="1100" y="1400" as="sourcePoint" />
            <mxPoint x="1180" y="1400" as="targetPoint" />
          </mxGeometry>
        </mxCell>
        <mxCell id="5PiXKEkqAaMQAXL7R4vB-103" value="Email" style="ellipse;whiteSpace=wrap;html=1;align=center;" vertex="1" parent="1">
          <mxGeometry x="1180" y="1380" width="100" height="40" as="geometry" />
        </mxCell>
        <mxCell id="5PiXKEkqAaMQAXL7R4vB-104" value="Ticket" style="rounded=1;arcSize=10;whiteSpace=wrap;html=1;align=center;" vertex="1" parent="1">
          <mxGeometry x="1350" y="1600" width="100" height="40" as="geometry" />
        </mxCell>
        <mxCell id="5PiXKEkqAaMQAXL7R4vB-105" value="Owns" style="shape=rhombus;perimeter=rhombusPerimeter;whiteSpace=wrap;html=1;align=center;" vertex="1" parent="1">
          <mxGeometry x="1340" y="1480" width="120" height="60" as="geometry" />
        </mxCell>
        <mxCell id="5PiXKEkqAaMQAXL7R4vB-107" value="" style="fontSize=12;html=1;endArrow=ERoneToMany;rounded=0;" edge="1" parent="1" source="5PiXKEkqAaMQAXL7R4vB-105" target="5PiXKEkqAaMQAXL7R4vB-104">
          <mxGeometry width="100" height="100" relative="1" as="geometry">
            <mxPoint x="1189.58" y="1610" as="sourcePoint" />
            <mxPoint x="1189.58" y="1570" as="targetPoint" />
          </mxGeometry>
        </mxCell>
        <mxCell id="5PiXKEkqAaMQAXL7R4vB-108" value="" style="endArrow=none;html=1;rounded=0;" edge="1" parent="1" source="5PiXKEkqAaMQAXL7R4vB-99" target="5PiXKEkqAaMQAXL7R4vB-105">
          <mxGeometry width="50" height="50" relative="1" as="geometry">
            <mxPoint x="1250" y="1620" as="sourcePoint" />
            <mxPoint x="1320" y="1740" as="targetPoint" />
          </mxGeometry>
        </mxCell>
        <mxCell id="5PiXKEkqAaMQAXL7R4vB-109" value="Phone" style="ellipse;whiteSpace=wrap;html=1;align=center;" vertex="1" parent="1">
          <mxGeometry x="1350" y="1270" width="100" height="40" as="geometry" />
        </mxCell>
        <mxCell id="5PiXKEkqAaMQAXL7R4vB-113" value="" style="endArrow=none;html=1;rounded=0;" edge="1" parent="1" source="5PiXKEkqAaMQAXL7R4vB-99" target="5PiXKEkqAaMQAXL7R4vB-109">
          <mxGeometry width="50" height="50" relative="1" as="geometry">
            <mxPoint x="1510" y="1530" as="sourcePoint" />
            <mxPoint x="1560" y="1480" as="targetPoint" />
          </mxGeometry>
        </mxCell>
        <mxCell id="5PiXKEkqAaMQAXL7R4vB-114" value="" style="endArrow=none;html=1;rounded=0;" edge="1" parent="1" target="5PiXKEkqAaMQAXL7R4vB-115" source="5PiXKEkqAaMQAXL7R4vB-99">
          <mxGeometry width="50" height="50" relative="1" as="geometry">
            <mxPoint x="1627" y="1190" as="sourcePoint" />
            <mxPoint x="1750" y="1220" as="targetPoint" />
          </mxGeometry>
        </mxCell>
        <mxCell id="5PiXKEkqAaMQAXL7R4vB-115" value="birthdate" style="ellipse;whiteSpace=wrap;html=1;align=center;" vertex="1" parent="1">
          <mxGeometry x="1170" y="1270" width="100" height="40" as="geometry" />
        </mxCell>
        <mxCell id="5PiXKEkqAaMQAXL7R4vB-116" value="Age" style="ellipse;whiteSpace=wrap;html=1;align=center;dashed=1;" vertex="1" parent="1">
          <mxGeometry x="1520" y="1270" width="100" height="40" as="geometry" />
        </mxCell>
        <mxCell id="5PiXKEkqAaMQAXL7R4vB-117" value="" style="endArrow=none;html=1;rounded=0;" edge="1" parent="1" target="5PiXKEkqAaMQAXL7R4vB-116" source="5PiXKEkqAaMQAXL7R4vB-99">
          <mxGeometry width="50" height="50" relative="1" as="geometry">
            <mxPoint x="1650" y="1190" as="sourcePoint" />
            <mxPoint x="1766" y="1293" as="targetPoint" />
          </mxGeometry>
        </mxCell>
        <mxCell id="5PiXKEkqAaMQAXL7R4vB-118" value="" style="endArrow=none;html=1;rounded=0;" edge="1" parent="1" source="5PiXKEkqAaMQAXL7R4vB-105">
          <mxGeometry width="50" height="50" relative="1" as="geometry">
            <mxPoint x="1440" y="1620" as="sourcePoint" />
            <mxPoint x="1500" y="1510" as="targetPoint" />
          </mxGeometry>
        </mxCell>
        <mxCell id="5PiXKEkqAaMQAXL7R4vB-119" value="Purchase Date" style="ellipse;whiteSpace=wrap;html=1;align=center;" vertex="1" parent="1">
          <mxGeometry x="1500" y="1490" width="100" height="40" as="geometry" />
        </mxCell>
        <mxCell id="5PiXKEkqAaMQAXL7R4vB-120" value="" style="endArrow=none;html=1;rounded=0;" edge="1" parent="1" source="5PiXKEkqAaMQAXL7R4vB-121" target="5PiXKEkqAaMQAXL7R4vB-104">
          <mxGeometry relative="1" as="geometry">
            <mxPoint x="1150" y="1619.47" as="sourcePoint" />
            <mxPoint x="1310" y="1619.47" as="targetPoint" />
          </mxGeometry>
        </mxCell>
        <mxCell id="5PiXKEkqAaMQAXL7R4vB-121" value="is" style="shape=rhombus;perimeter=rhombusPerimeter;whiteSpace=wrap;html=1;align=center;" vertex="1" parent="1">
          <mxGeometry x="1490" y="1590" width="120" height="60" as="geometry" />
        </mxCell>
        <mxCell id="5PiXKEkqAaMQAXL7R4vB-122" value="" style="endArrow=none;html=1;rounded=0;" edge="1" parent="1" source="5PiXKEkqAaMQAXL7R4vB-121" target="5PiXKEkqAaMQAXL7R4vB-123">
          <mxGeometry relative="1" as="geometry">
            <mxPoint x="1500" y="1600" as="sourcePoint" />
            <mxPoint x="1710" y="1620" as="targetPoint" />
          </mxGeometry>
        </mxCell>
        <mxCell id="5PiXKEkqAaMQAXL7R4vB-123" value="Ticket Type" style="rounded=1;arcSize=10;whiteSpace=wrap;html=1;align=center;" vertex="1" parent="1">
          <mxGeometry x="1660" y="1600" width="100" height="40" as="geometry" />
        </mxCell>
        <mxCell id="5PiXKEkqAaMQAXL7R4vB-124" value="ID" style="ellipse;whiteSpace=wrap;html=1;align=center;fontStyle=4;" vertex="1" parent="1">
          <mxGeometry x="1800" y="1600" width="100" height="40" as="geometry" />
        </mxCell>
        <mxCell id="5PiXKEkqAaMQAXL7R4vB-125" value="" style="endArrow=none;html=1;rounded=0;" edge="1" parent="1" target="5PiXKEkqAaMQAXL7R4vB-124">
          <mxGeometry width="50" height="50" relative="1" as="geometry">
            <mxPoint x="1760" y="1620" as="sourcePoint" />
            <mxPoint x="1680" y="1560" as="targetPoint" />
          </mxGeometry>
        </mxCell>
        <mxCell id="5PiXKEkqAaMQAXL7R4vB-126" value="Type" style="ellipse;whiteSpace=wrap;html=1;align=center;" vertex="1" parent="1">
          <mxGeometry x="1660" y="1680" width="100" height="40" as="geometry" />
        </mxCell>
        <mxCell id="5PiXKEkqAaMQAXL7R4vB-127" value="" style="endArrow=none;html=1;rounded=0;" edge="1" parent="1" source="5PiXKEkqAaMQAXL7R4vB-126">
          <mxGeometry width="50" height="50" relative="1" as="geometry">
            <mxPoint x="1630" y="1610" as="sourcePoint" />
            <mxPoint x="1710" y="1640" as="targetPoint" />
          </mxGeometry>
        </mxCell>
        <mxCell id="5PiXKEkqAaMQAXL7R4vB-128" value="Cost" style="ellipse;whiteSpace=wrap;html=1;align=center;" vertex="1" parent="1">
          <mxGeometry x="1460" y="1680" width="100" height="40" as="geometry" />
        </mxCell>
        <mxCell id="5PiXKEkqAaMQAXL7R4vB-129" value="" style="endArrow=none;html=1;rounded=0;" edge="1" parent="1" source="5PiXKEkqAaMQAXL7R4vB-128" target="5PiXKEkqAaMQAXL7R4vB-104">
          <mxGeometry width="50" height="50" relative="1" as="geometry">
            <mxPoint x="1380" y="1740" as="sourcePoint" />
            <mxPoint x="1430" y="1690" as="targetPoint" />
          </mxGeometry>
        </mxCell>
        <mxCell id="5PiXKEkqAaMQAXL7R4vB-133" value="for" style="shape=rhombus;perimeter=rhombusPerimeter;whiteSpace=wrap;html=1;align=center;" vertex="1" parent="1">
          <mxGeometry x="1340" y="1740" width="120" height="60" as="geometry" />
        </mxCell>
        <mxCell id="5PiXKEkqAaMQAXL7R4vB-134" value="" style="endArrow=none;html=1;rounded=0;" edge="1" parent="1" source="65Ibzihye3PbVpg7L_qn-54" target="5PiXKEkqAaMQAXL7R4vB-133">
          <mxGeometry relative="1" as="geometry">
            <mxPoint x="1480" y="1730" as="sourcePoint" />
            <mxPoint x="1640" y="1730" as="targetPoint" />
          </mxGeometry>
        </mxCell>
        <mxCell id="5PiXKEkqAaMQAXL7R4vB-135" value="" style="fontSize=12;html=1;endArrow=ERoneToMany;rounded=0;" edge="1" parent="1" source="5PiXKEkqAaMQAXL7R4vB-133" target="5PiXKEkqAaMQAXL7R4vB-104">
          <mxGeometry width="100" height="100" relative="1" as="geometry">
            <mxPoint x="1399.5" y="1720" as="sourcePoint" />
            <mxPoint x="1399.5" y="1676" as="targetPoint" />
          </mxGeometry>
        </mxCell>
        <mxCell id="5PiXKEkqAaMQAXL7R4vB-136" value="bought with" style="shape=rhombus;perimeter=rhombusPerimeter;whiteSpace=wrap;html=1;align=center;" vertex="1" parent="1">
          <mxGeometry x="1160" y="1590" width="120" height="60" as="geometry" />
        </mxCell>
        <mxCell id="5PiXKEkqAaMQAXL7R4vB-138" value="Purchase type" style="rounded=1;arcSize=10;whiteSpace=wrap;html=1;align=center;" vertex="1" parent="1">
          <mxGeometry x="1000" y="1600" width="100" height="40" as="geometry" />
        </mxCell>
        <mxCell id="5PiXKEkqAaMQAXL7R4vB-139" value="" style="endArrow=none;html=1;rounded=0;" edge="1" parent="1" source="5PiXKEkqAaMQAXL7R4vB-138" target="5PiXKEkqAaMQAXL7R4vB-136">
          <mxGeometry relative="1" as="geometry">
            <mxPoint x="1130" y="1710" as="sourcePoint" />
            <mxPoint x="1290" y="1710" as="targetPoint" />
          </mxGeometry>
        </mxCell>
        <mxCell id="5PiXKEkqAaMQAXL7R4vB-140" value="" style="fontSize=12;html=1;endArrow=ERoneToMany;rounded=0;" edge="1" parent="1" source="5PiXKEkqAaMQAXL7R4vB-136" target="5PiXKEkqAaMQAXL7R4vB-104">
          <mxGeometry width="100" height="100" relative="1" as="geometry">
            <mxPoint x="1410" y="1750" as="sourcePoint" />
            <mxPoint x="1410" y="1650" as="targetPoint" />
          </mxGeometry>
        </mxCell>
        <mxCell id="5PiXKEkqAaMQAXL7R4vB-141" value="" style="endArrow=none;html=1;rounded=0;exitX=0.5;exitY=1;exitDx=0;exitDy=0;" edge="1" parent="1" source="5PiXKEkqAaMQAXL7R4vB-142" target="5PiXKEkqAaMQAXL7R4vB-138">
          <mxGeometry width="50" height="50" relative="1" as="geometry">
            <mxPoint x="1050" y="1720" as="sourcePoint" />
            <mxPoint x="1240" y="1690" as="targetPoint" />
          </mxGeometry>
        </mxCell>
        <mxCell id="5PiXKEkqAaMQAXL7R4vB-142" value="Type" style="ellipse;whiteSpace=wrap;html=1;align=center;" vertex="1" parent="1">
          <mxGeometry x="1000" y="1700" width="100" height="40" as="geometry" />
        </mxCell>
        <mxCell id="5PiXKEkqAaMQAXL7R4vB-143" value="ID" style="ellipse;whiteSpace=wrap;html=1;align=center;fontStyle=4;" vertex="1" parent="1">
          <mxGeometry x="1000" y="1500" width="100" height="40" as="geometry" />
        </mxCell>
        <mxCell id="5PiXKEkqAaMQAXL7R4vB-144" value="" style="endArrow=none;html=1;rounded=0;" edge="1" parent="1" source="5PiXKEkqAaMQAXL7R4vB-138" target="5PiXKEkqAaMQAXL7R4vB-143">
          <mxGeometry width="50" height="50" relative="1" as="geometry">
            <mxPoint x="1190" y="1740" as="sourcePoint" />
            <mxPoint x="1240" y="1690" as="targetPoint" />
          </mxGeometry>
        </mxCell>
      </root>
    </mxGraphModel>
  </diagram>
</mxfile>
